<svg id="Layer_1" xmlns="http://www.w3.org/2000/svg" xmlns:xlink="http://www.w3.org/1999/xlink" viewBox="0 0 216 38.2" style="enable-background:new 0 0 216 38.2;"><style>.st0{fill:#122437;}
.st1{fill:#009374;}</style><g><g><g><g><path class="st0" d="M1e2.0c-2.4.1-5.4 1-5.4 4.5v12.1V24v3.1 3.6 3 4.5h27.8v-7.5h-19.7v-3.6V24h14.9v-7.5h-14.9v-9h19.7V0H1e2z"/><path class="st0" d="M75.2 4.5v12.1H53.7V4.5c0-5.7-8.1-4.3-8.1-4.3v4.3 33.7h8.1V24h21.5v14.2h8.1V4.5.2C83.4.2 75.2-1.2 75.2 4.5z"/><path class="st0" d="M158.3 30.7h-16.6V4.5.2s-8.1-1.4-8.1 4.3v33.7h.3 7.8 16.6 4C162.3 38.2 163.6 30.7 158.3 30.7z"/><path class="st0" d="M37.4.0H27.1l-19 25.3V4.5C8.1-1.2.0.2.0.2v4.3 33.7h8.1L17 26.6l10.6 11.6h11.5L21.9 20.3 37.4.0z"/></g></g><g><g><path class="st1" d="M197.8 19.1c-3.6 3.5-7.1 7-10.7 10.6C193 29.5 197.8 24.8 197.8 19.1z"/><path class="st1" d="M197.8 18.5c-.2-5.1-4.4-9.4-9.7-9.9C191.3 11.9 194.5 15.2 197.8 18.5z"/></g><g><path class="st0" d="M183.4.3C183.5.3 183.5.3 183.4.3 183.5.3 183.5.3 183.4.3z"/><path class="st0" d="M184.5.1c.2.0.3.0.5-.1C184.8.1 184.7.1 184.5.1z"/><path class="st0" d="M190.2.3c.1.0.2.0.3.0C190.3.3 190.2.3 190.2.3z"/><path class="st0" d="M189.7.2h.1C189.8.2 189.7.2 189.7.2z"/><path class="st0" d="M167.9 16.7v-.1V16.7z"/><path class="st0" d="M167.8 19.6s0 0 0 0 0 0 0 0z"/><path class="st0" d="M167.8 20.6c0-.1.0-.3.0-.5C167.8 20.3 167.8 20.5 167.8 20.6z"/><path class="st0" d="M168 15.9c0-.1.0-.2.0-.3C168 15.8 168 15.9 168 15.9z"/><path class="st0" d="M168 16.3c0-.1.0-.1.0-.2C168 16.2 168 16.3 168 16.3z"/><path class="st0" d="M190.7.4c.2.0.4.1.5.1C191 .5 190.8.4 190.7.4z"/><path class="st0" d="M183.7.3c.2.0.4-.1.6-.1C184.1.2 183.9.2 183.7.3z"/><path class="st0" d="M191.8.7l-.9.9-4.5 4.6-.6.6L183.6 9c1-.3 2.1-.5 3.3-.5 6 0 10.9 4.7 10.9 10.5s-4.9 10.5-10.9 10.5c-.7.0-1.4-.1-2.1-.2l1.6 1.6c.1.1.2.2.4.4l4.3 4.2 1.6 1.6c-1.8.6-3.8.9-5.8.9-1 0-2-.1-3-.2l-2.2-2.1c-4.5-4.5-9.1-9-13.6-13.4-.1-.5-.1-1-.2-1.5.9 9.7 9.1 17.3 19 17.3 10.5.0 19.1-8.6 19.1-19.1C205.9 10.3 2e2 2.8 191.8.7z"/><path class="st0" d="M182.8.4C175.3 2 169.4 8 168.1 15.6c4.6-4.7 9.1-9.4 13.7-14.2l1-1z"/><path class="st0" d="M191.3.5c.2.0.3.1.5.1C191.6.6 191.5.6 191.3.5z"/><path class="st1" d="M167.9 16.6c0-.1.0-.2.0-.3C167.9 16.4 167.9 16.5 167.9 16.6z"/><path class="st1" d="M167.9 16.7c-.1.8-.2 1.6-.2 2.4.0.2.0.3.0.5.0-.2.0-.3.0-.5C167.8 18.3 167.8 17.5 167.9 16.7z"/><path class="st1" d="M189.8.2c.1.0.2.0.4.1C190 .3 189.9.3 189.8.2z"/><path class="st1" d="M190.4.3c.1.0.2.0.3.0C190.6.4 190.5.4 190.4.3z"/><path class="st1" d="M167.8 20.9c0-.1.0-.2.0-.3C167.8 20.7 167.8 20.8 167.8 20.9z"/><path class="st1" d="M167.8 20.2c0-.2.0-.4.0-.5C167.8 19.8 167.8 20 167.8 20.2z"/><path class="st1" d="M189.7.2c-.9-.1-1.9-.2-2.8-.2-.6.0-1.2.0-1.8.1.6-.1 1.2-.1 1.8-.1C187.8.0 188.8.1 189.7.2z"/><path class="st1" d="M168 16.1c0-.1.0-.1.0-.2C168 16 168 16.1 168 16.1z"/><path class="st1" d="M184.3.2c.1.0.1.0.2.0C184.4.2 184.4.2 184.3.2z"/><path class="st1" d="M191.8.7s0-.1.0.0c0-.1.0.0.0.0z"/><polygon class="st1" points="168.1,15.7 168.1,15.7 168.1,15.7"/><path class="st1" d="M191.2.5S191.3.5 191.2.5C191.3.5 191.2.5 191.2.5z"/><path class="st1" d="M182.8.4c.2.0.4-.1.6-.1C183.2.3 183 .4 182.8.4z"/><path class="st1" d="M183.6.3S183.5.3 183.6.3C183.7.3 183.6.3 183.6.3z"/><path class="st1" d="M191 35.7l-4.3-4.2c-.1-.1-.2-.2-.4-.4l-1.6-1.6-8.7-8.7-.8-.8-1.2-1.2 1.2-1.3.9-.9 7.4-7.5 2.2-2.2.6-.6 4.5-4.6.9-.9s0 0-.1.0c-.2.0-.3-.1-.5-.1h-.1c-.2.0-.4-.1-.5-.1s-.2.0-.3.0c-.1.0-.2.0-.3.0-.1.0-.2.0-.4-.1h-.1c-.9-.1-1.9-.2-2.8-.2-.6.0-1.2.0-1.8.1-.2.0-.3.0-.5.1-.1.0-.1.0-.2.0-.2.0-.4.1-.6.1-.1.0-.1.0-.2.0h-.1c-.2.0-.4.1-.6.1l-1 1.1c-4.6 4.7-9.1 9.4-13.7 14.2.0.1.0.2.0.3s0 .1.0.2c0 .1.0.1.0.2.0.1.0.2.0.3v.1c-.1.8-.1 1.6-.1 2.4.0.2.0.3.0.5v.1c0 .2.0.4.0.5.0.2.0.3.0.5.0.1.0.2.0.3.0.5.1 1 .2 1.5 4.5 4.5 9.1 9 13.6 13.4l2.2 2.1c1 .2 2 .2 3 .2 2 0 4-.3 5.8-.9L191 35.7z"/></g></g></g><g><path class="st0" d="M209.5.1c.1.1.1.2.1.3s0 .3-.1.3c-.1.1-.2.1-.4.1h-1.3v4.3c0 .1-.1.3-.2.4-.1.1-.2.1-.4.1-.2.0-.3.0-.4-.1s-.1-.2-.1-.4V.9h-1.3c-.1.0-.3.0-.4-.1s-.1-.2-.1-.3c0-.1.0-.2.1-.3.1-.1.2-.1.4-.1h3.6C209.3.0 209.4.1 209.5.1z"/><path class="st0" d="M215.9.1c.1.1.2.2.2.4v4.7c0 .1.0.3-.1.4-.1.1-.2.1-.4.1-.2.0-.3.0-.4-.1C215 5.5 215 5.4 215 5.2V1.9L213.6 4c-.1.1-.1.1-.2.2-.1.0-.1.1-.2.1s-.1.0-.2-.1c-.1.0-.1-.1-.2-.2l-1.4-2.1v3.4c0 .1.0.3-.1.4-.1.1-.2.1-.3.1-.1.0-.2.0-.3-.1-.1-.1-.1-.2-.1-.4V.5c0-.1.1-.3.2-.4C210.8.0 210.9.0 211 0s.2.0.2.1c.1.0.1.1.2.2l1.8 2.7L215 .3c0-.1.1-.1.2-.2.1.0.1-.1.2-.1C215.6.0 215.8.0 215.9.1z"/></g></g></svg>